<?xml version="1.0" encoding="utf-8"?>
<!DOCTYPE svg PUBLIC "-//W3C//DTD SVG 20010904//EN" "http://www.w3.org/TR/2001/REC-SVG-20010904/DTD/svg10.dtd">
<svg version="1.0" xmlns="http://www.w3.org/2000/svg" width="102px" height="102px" viewBox="0 0 102 102" preserveAspectRatio="xMidYMid meet">
 <g fill="#7d5ff5">
  <path d="M0.1 31.8 l-0.1 -31.8 51 0 51 0 0 25.5 0 25.5 -14.9 0 -14.9 0 -0.7 -3.7 c-1.1 -6 -6.5 -13.3 -9.7 -13.3 -0.5 0 -2.7 3.8 -5 8.5 -2.3 4.7 -4.5 8.5 -4.8 8.5 -0.3 0 -2.5 -3.8 -4.8 -8.5 -2.3 -4.7 -4.8 -8.5 -5.5 -8.5 -2.8 0 -8.2 7.8 -9.2 13.4 l-0.7 3.6 -7.5 0 c-11.8 0 -17.4 2.5 -22.5 10 -1.6 2.4 -1.7 0.9 -1.7 -29.2z"/>
 </g>
 <g fill="#9075fb">
  <path d="M0 82.9 c0 -18.2 0.1 -19.1 2.3 -22.4 4.9 -7.2 10.2 -9.5 21.7 -9.5 l7.7 0 0.7 3.8 c0.8 4.8 5.2 11.1 9.6 13.7 4.5 2.6 15 2.7 19.8 0.2 4.3 -2.3 9.1 -9.1 9.8 -13.9 l0.7 -3.8 14.8 0 14.9 0 0 19.8 c0 21 0 20.9 -5.3 26.6 -4.4 4.6 -4.3 4.6 -51.6 4.6 l-45.1 0 0 -19.1z"/>
 </g>
 <g fill="#fffffe">
  <path d="M44.7 69.6 c-5 -1.9 -7.8 -4.5 -10.7 -10.2 -3.7 -7.4 -2.1 -15.9 4.4 -23.1 1.1 -1.3 2.5 -2.3 3.3 -2.3 0.7 0 3.2 3.8 5.5 8.5 2.3 4.7 4.5 8.5 4.8 8.5 0.3 0 2.5 -3.8 4.8 -8.5 2.3 -4.7 4.7 -8.5 5.3 -8.5 2.2 0 7.9 7.1 9 11.3 2.4 8.8 -1.4 18.6 -8.8 23 -4.3 2.5 -12.8 3.1 -17.6 1.3z"/>
 </g>
</svg>